<svg width="30" height="30" viewBox="0 0 30 30" fill="none" xmlns="http://www.w3.org/2000/svg">
<path d="M18.3408 24.9999C18.1273 25.0006 17.9164 24.9535 17.7235 24.8621C17.5307 24.7706 17.3608 24.6371 17.2263 24.4714L10.325 15.9008C10.1149 15.6452 10 15.3246 10 14.9937C10 14.6628 10.1149 14.3422 10.325 14.0866L17.4692 5.51603C17.7117 5.22432 18.0602 5.04087 18.438 5.00604C18.8159 4.97122 19.192 5.08787 19.4838 5.33033C19.7756 5.57279 19.9591 5.9212 19.994 6.29892C20.0288 6.67663 19.9121 7.05271 19.6696 7.34442L13.2827 15.0008L19.4553 22.6573C19.63 22.8669 19.741 23.1223 19.7751 23.393C19.8092 23.6638 19.765 23.9386 19.6478 24.1851C19.5305 24.4315 19.3451 24.6392 19.1135 24.7836C18.8819 24.928 18.6137 25.0031 18.3408 24.9999Z" fill="#484848"/>
</svg>
