<svg width="10" height="10" viewBox="0 0 10 10" fill="none" xmlns="http://www.w3.org/2000/svg">
<path d="M8.33314 3.88649C8.33338 3.95764 8.31768 4.02795 8.28719 4.09224C8.25671 4.15652 8.21221 4.21316 8.15696 4.25799L5.30009 6.5584C5.21489 6.62845 5.10803 6.66675 4.99774 6.66675C4.88745 6.66675 4.78058 6.62845 4.69539 6.5584L1.83851 4.17702C1.74128 4.09618 1.68013 3.98001 1.66852 3.85407C1.65691 3.72813 1.69579 3.60273 1.77661 3.50547C1.85743 3.40821 1.97357 3.34704 2.09948 3.33543C2.22538 3.32382 2.35074 3.36271 2.44798 3.44355L5.00012 5.57251L7.55226 3.515C7.62215 3.45676 7.70726 3.41976 7.79751 3.40839C7.88776 3.39701 7.97938 3.41174 8.06153 3.45082C8.14368 3.4899 8.21292 3.5517 8.26105 3.62891C8.30919 3.70612 8.3342 3.79551 8.33314 3.88649Z" fill="#000"/>
</svg>
