<svg width="19" height="15" viewBox="0 0 19 15" fill="none" xmlns="http://www.w3.org/2000/svg">
<path d="M0 13V2C0 0.9 0.9 0 2 0H17C18.1 0 19 0.9 19 2V13C19 14.1 18.1 15 17 15H2C0.9 15 0 14.1 0 13Z" fill="#FEBABA"/>
<path d="M19 6V5H13C12.45 5 12 4.55 12 4C12 3.45 12.45 3 13 3H13.5V2H13C11.9 2 11 2.9 11 4C11 5.1 11.9 6 13 6H14.5V9H13C11.6 9 10.5 10.1 10.5 11.5C10.5 12.9 11.6 14 13 14H14V13H13C12.15 13 11.5 12.35 11.5 11.5C11.5 10.65 12.15 10 13 10H19V9H15.5V6H19ZM6 9H4.5V6H6C7.1 6 8 5.1 8 4C8 2.9 7.1 2 6 2H4.5V3H6C6.55 3 7 3.45 7 4C7 4.55 6.55 5 6 5H0V6H3.5V9H0V10H6C6.85 10 7.5 10.65 7.5 11.5C7.5 12.35 6.85 13 6 13H5V14H6C7.4 14 8.5 12.9 8.5 11.5C8.5 10.1 7.4 9 6 9Z" fill="#00345C"/>
</svg>
