<svg xmlns="http://www.w3.org/2000/svg" viewBox="0 0 202.96 201.71"><defs><style>.cls-1{fill:#fefefe;}.cls-1,.cls-2,.cls-3{fill-rule:evenodd;}.cls-2{fill:#003762;}.cls-3{fill:#22c7b8;}</style></defs><g id="Layer_2" data-name="Layer 2"><g id="_38" data-name="38"><path class="cls-1" d="M44.26,16.38A95.79,95.79,0,1,0,203,103.54,101.5,101.5,0,1,1,44.26,16.38Z"/><path class="cls-1" d="M181.52,75.53A80.83,80.83,0,0,0,23.77,82.84a85.65,85.65,0,1,1,133.91,73.55A80.82,80.82,0,0,0,181.52,75.53Z"/><path class="cls-2" d="M203,103.54A101.5,101.5,0,1,1,44.26,16.38,95.79,95.79,0,1,0,203,103.54Z"/><path class="cls-3" d="M157.68,156.39A80.83,80.83,0,1,0,23.77,82.84a85.65,85.65,0,1,1,133.91,73.55Z"/><path class="cls-2" d="M117.65,121.26c6.75-.88,13.15-4.44,19-10.66a3.77,3.77,0,0,0,1.07-3.2C145.38,98.15,150,85.35,150,75.57c0-15.11-7.3-16.71-19.21-19.2h-.17a4.39,4.39,0,0,0-3.92-2.49,4.44,4.44,0,0,0-4.62,4.45c0,2.31,2,4.09,4.62,4.09a4.8,4.8,0,0,0,2.68-.89h0c11.73,2.49,14.93,3.2,14.93,14,0,8.54-4.45,20.1-11,28.45a3.78,3.78,0,0,0-3,1.42c-3.55,3.56-8.89,8-15.46,8-6.4,0-11.92-4.44-15.3-8a4.84,4.84,0,0,0-3-1.42c-6.58-8.35-11-19.91-11-28.45,0-10.84,3-11.55,14.76-14h0a5.29,5.29,0,0,0,2.84.89,4.37,4.37,0,0,0,4.61-4.09,4.55,4.55,0,0,0-4.61-4.45A4.66,4.66,0,0,0,99,56.37h0C86.89,58.86,79.6,60.46,79.6,75.57c0,9.78,4.8,22.58,12.44,32a4.07,4.07,0,0,0,.9,3q8.79,9.33,18.66,10.66l-.17,19c0,13.15-11.39,23.82-25.43,23.82s-25.59-10.67-25.59-23.82V123.57c8.17-1.24,14.39-7.81,14.39-15.82,0-8.71-7.82-16-17.25-16s-17.24,7.29-17.24,16c0,8,6.23,14.58,14.4,15.82v16.72c0,16.18,14.05,29.16,31.29,29.16s31.29-13,31.29-29.16v-19Z"/><path class="cls-3" d="M57.55,118.6c6.23,0,11.39-4.8,11.39-10.85,0-5.86-5.16-10.66-11.39-10.66-6.4,0-11.37,4.8-11.37,10.66,0,6,5,10.85,11.37,10.85Z"/></g></g></svg>