<svg width="10" height="11" viewBox="0 0 10 11" fill="none" xmlns="http://www.w3.org/2000/svg">
<path d="M6.47605 1.1128C7.09097 1.72846 7.47583 2.5366 7.56627 3.40203C7.65671 4.26747 7.44723 5.13771 6.97288 5.8672C7.05569 5.9362 7.12469 6.0121 7.2213 6.08111C7.35931 6.19152 7.54562 6.32952 7.78023 6.48823C8.01485 6.65384 8.16666 6.75735 8.23566 6.81255C8.52548 7.02647 8.73939 7.20588 8.8843 7.35079C9.10511 7.5716 9.29833 7.79932 9.46394 8.04083C9.63645 8.28235 9.76756 8.51696 9.87106 8.75848C9.96767 8.99999 10.016 9.22771 9.99527 9.44852C9.98147 9.66933 9.89866 9.85564 9.74685 10.0075C9.59504 10.1593 9.40873 10.2421 9.18792 10.2559C8.97401 10.2697 8.73939 10.2283 8.50478 10.1248C8.26326 10.0282 8.02175 9.89015 7.78713 9.71763C7.54562 9.55202 7.3179 9.35881 7.09709 9.138C6.95218 8.99309 6.77277 8.77918 6.56576 8.49626C6.49675 8.40655 6.39325 8.25474 6.24144 8.04083C6.08963 7.82002 5.96542 7.64751 5.85501 7.5026C5.74461 7.36459 5.6549 7.26108 5.55139 7.15758C4.83516 7.53261 4.01793 7.66926 3.21865 7.54763C2.41937 7.426 1.67977 7.05244 1.10752 6.48133C-0.369173 4.99774 -0.369173 2.58949 1.10752 1.1128C1.45987 0.760028 1.8783 0.480168 2.33889 0.289225C2.79948 0.0982817 3.29319 0 3.79179 0C4.29038 0 4.78409 0.0982817 5.24468 0.289225C5.70527 0.480168 6.1237 0.760028 6.47605 1.1128ZM5.50309 5.50147C5.95389 5.04738 6.20687 4.43347 6.20687 3.79362C6.20687 3.15376 5.95389 2.53985 5.50309 2.08576C5.27905 1.86106 5.01287 1.68277 4.7198 1.56112C4.42674 1.43948 4.11255 1.37686 3.79524 1.37686C3.47792 1.37686 3.16373 1.43948 2.87067 1.56112C2.5776 1.68277 2.31142 1.86106 2.08738 2.08576C1.86267 2.3098 1.68439 2.57598 1.56274 2.86905C1.4411 3.16212 1.37848 3.47631 1.37848 3.79362C1.37848 4.11093 1.4411 4.42512 1.56274 4.71819C1.68439 5.01125 1.86267 5.27743 2.08738 5.50147C2.31142 5.72618 2.5776 5.90446 2.87067 6.02611C3.16373 6.14776 3.47792 6.21037 3.79524 6.21037C4.11255 6.21037 4.42674 6.14776 4.7198 6.02611C5.01287 5.90446 5.27905 5.72618 5.50309 5.50147Z" fill="#000"/>
</svg>
